<svg xmlns="http://www.w3.org/2000/svg" xmlns:xlink="http://www.w3.org/1999/xlink" version="1.1" width="256" height="256" viewBox="0 0 256 256" xml:space="preserve">

<defs>
</defs>
<g style="stroke: none; stroke-width: 0; stroke-dasharray: none; stroke-linecap: butt; stroke-linejoin: miter; stroke-miterlimit: 10; fill: none; fill-rule: nonzero; opacity: 1;" transform="translate(1.4065934065934016 1.4065934065934016) scale(2.81 2.81)" >
	<path d="M 81.029 48.38 H 70.018 c -1.104 0 -2 -0.896 -2 -2 s 0.896 -2 2 -2 h 11.012 c 1.104 0 2 0.896 2 2 S 82.134 48.38 81.029 48.38 z" style="stroke: none; stroke-width: 1; stroke-dasharray: none; stroke-linecap: butt; stroke-linejoin: miter; stroke-miterlimit: 10; fill: rgb(0,0,0); fill-rule: nonzero; opacity: 1;" transform=" matrix(1 0 0 1 0 0) " stroke-linecap="round" />
	<path d="M 81.742 61.57 H 70.018 c -1.104 0 -2 -0.896 -2 -2 s 0.896 -2 2 -2 h 11.725 c 1.104 0 2 0.896 2 2 S 82.847 61.57 81.742 61.57 z" style="stroke: none; stroke-width: 1; stroke-dasharray: none; stroke-linecap: butt; stroke-linejoin: miter; stroke-miterlimit: 10; fill: rgb(0,0,0); fill-rule: nonzero; opacity: 1;" transform=" matrix(1 0 0 1 0 0) " stroke-linecap="round" />
	<path d="M 74.11 74.761 h -7.032 c -1.104 0 -2 -0.896 -2 -2 s 0.896 -2 2 -2 h 7.032 c 1.104 0 2 0.896 2 2 S 75.215 74.761 74.11 74.761 z" style="stroke: none; stroke-width: 1; stroke-dasharray: none; stroke-linecap: butt; stroke-linejoin: miter; stroke-miterlimit: 10; fill: rgb(0,0,0); fill-rule: nonzero; opacity: 1;" transform=" matrix(1 0 0 1 0 0) " stroke-linecap="round" />
	<path d="M 48.7 87.963 c -6.519 0 -13.007 -1.627 -17.082 -4.324 c -1.343 -0.891 -2.789 -1.36 -4.181 -1.36 h -3.521 c -1.104 0 -2 -0.896 -2 -2 s 0.896 -2 2 -2 h 3.521 c 2.18 0 4.39 0.7 6.389 2.025 c 3.575 2.367 9.791 3.797 15.798 3.648 l 24.485 -0.001 c 2.204 0 3.997 -1.793 3.997 -3.997 v -1.196 c 0 -2.204 -1.793 -3.997 -3.997 -3.997 c -1.104 0 -2 -0.896 -2 -2 s 0.896 -2 2 -2 h 7.893 c 2.204 0 3.997 -1.793 3.997 -3.997 v -1.196 c 0 -2.204 -1.793 -3.997 -3.997 -3.997 h -0.261 c -1.104 0 -2 -0.896 -2 -2 s 0.896 -2 2 -2 c 2.204 0 3.997 -1.793 3.997 -3.997 v -1.196 c 0 -2.204 -1.793 -3.997 -3.997 -3.997 h -0.713 c -1.104 0 -2 -0.896 -2 -2 s 0.896 -2 2 -2 c 2.204 0 3.997 -1.793 3.997 -3.997 v -1.196 c 0 -2.204 -1.793 -3.997 -3.997 -3.997 L 57.763 35.23 c -0.002 0 -0.003 0 -0.004 0 c -0.716 0 -1.378 -0.383 -1.734 -1.004 c -0.357 -0.622 -0.354 -1.388 0.009 -2.007 c 2.413 -4.122 3.13 -15.131 0.494 -21.627 c -1.03 -2.539 -2.412 -4.064 -4.105 -4.534 c -0.174 -0.047 -0.352 -0.013 -0.523 0.104 c -0.225 0.152 -0.376 0.404 -0.405 0.674 C 50.01 20.494 41.427 39.919 30.819 40.534 c -0.039 0.002 -0.077 0.003 -0.116 0.003 h -6.786 c -1.104 0 -2 -0.896 -2 -2 s 0.896 -2 2 -2 h 6.723 C 37.438 36.068 45.942 20.9 47.517 6.405 c 0.156 -1.443 0.935 -2.738 2.135 -3.552 c 1.139 -0.773 2.539 -1.009 3.837 -0.649 c 2.913 0.807 5.245 3.187 6.745 6.885 c 2.648 6.525 2.395 16.208 0.531 22.137 l 20.261 -0.035 c 4.413 0 8.001 3.587 8.001 7.997 v 1.196 c 0 2.221 -0.91 4.233 -2.377 5.684 c 1.88 1.465 3.09 3.749 3.09 6.311 v 1.196 c 0 2.324 -0.996 4.42 -2.585 5.882 C 88.894 60.924 90 63.119 90 65.567 v 1.196 c 0 4.409 -3.588 7.997 -7.997 7.997 h -0.968 c 0.682 1.177 1.072 2.542 1.072 3.997 v 1.196 c 0 4.409 -3.588 7.997 -7.997 7.997 H 49.675 C 49.351 87.959 49.025 87.963 48.7 87.963 z" style="stroke: none; stroke-width: 1; stroke-dasharray: none; stroke-linecap: butt; stroke-linejoin: miter; stroke-miterlimit: 10; fill: rgb(0,0,0); fill-rule: nonzero; opacity: 1;" transform=" matrix(1 0 0 1 0 0) " stroke-linecap="round" />
	<path d="M 21.388 87.962 H 4.53 c -2.498 0 -4.53 -2.032 -4.53 -4.53 V 35.626 c 0 -2.498 2.032 -4.53 4.53 -4.53 h 16.857 c 2.498 0 4.53 2.032 4.53 4.53 v 47.805 C 25.917 85.93 23.885 87.962 21.388 87.962 z M 4.53 35.096 c -0.292 0 -0.53 0.238 -0.53 0.53 v 47.805 c 0 0.292 0.238 0.53 0.53 0.53 h 16.857 c 0.292 0 0.53 -0.238 0.53 -0.53 V 35.626 c 0 -0.292 -0.238 -0.53 -0.53 -0.53 H 4.53 z" style="stroke: none; stroke-width: 1; stroke-dasharray: none; stroke-linecap: butt; stroke-linejoin: miter; stroke-miterlimit: 10; fill: rgb(0,0,0); fill-rule: nonzero; opacity: 1;" transform=" matrix(1 0 0 1 0 0) " stroke-linecap="round" />
	<path d="M 12.959 82.141 c -1.104 0 -2 -0.896 -2 -2 v -6.525 c 0 -1.104 0.896 -2 2 -2 s 2 0.896 2 2 v 6.525 C 14.959 81.245 14.063 82.141 12.959 82.141 z" style="stroke: none; stroke-width: 1; stroke-dasharray: none; stroke-linecap: butt; stroke-linejoin: miter; stroke-miterlimit: 10; fill: rgb(0,0,0); fill-rule: nonzero; opacity: 1;" transform=" matrix(1 0 0 1 0 0) " stroke-linecap="round" />
</g>
</svg>